<?xml version="1.0" encoding="UTF-8" standalone="no"?>
<!-- Created with Inkscape (http://www.inkscape.org/) -->

<svg
   width="64"
   height="64"
   viewBox="0 0 64 64"
   version="1.1"
   id="svg1"
   inkscape:version="1.4.2 (ebf0e940d0, 2025-05-08)"
   sodipodi:docname="habr.svg"
   xmlns:inkscape="http://www.inkscape.org/namespaces/inkscape"
   xmlns:sodipodi="http://sodipodi.sourceforge.net/DTD/sodipodi-0.dtd"
   xmlns="http://www.w3.org/2000/svg"
   xmlns:svg="http://www.w3.org/2000/svg">
  <sodipodi:namedview
     id="namedview1"
     pagecolor="#505050"
     bordercolor="#ffffff"
     borderopacity="1"
     inkscape:showpageshadow="0"
     inkscape:pageopacity="0"
     inkscape:pagecheckerboard="1"
     inkscape:deskcolor="#505050"
     inkscape:document-units="px"
     inkscape:zoom="6.7890626"
     inkscape:cx="40.506329"
     inkscape:cy="15.024166"
     inkscape:window-width="1918"
     inkscape:window-height="1053"
     inkscape:window-x="0"
     inkscape:window-y="0"
     inkscape:window-maximized="1"
     inkscape:current-layer="layer1"
     showgrid="true">
    <inkscape:grid
       id="grid9"
       units="px"
       originx="0"
       originy="0"
       spacingx="1"
       spacingy="1"
       empcolor="#0099e5"
       empopacity="0.30196078"
       color="#0099e5"
       opacity="0.14901961"
       empspacing="8"
       enabled="true"
       visible="true"
       dotted="true" />
  </sodipodi:namedview>
  <defs
     id="defs1">
    <inkscape:path-effect
       effect="bspline"
       id="path-effect8"
       is_visible="true"
       lpeversion="1.3"
       weight="33.333333"
       steps="2"
       helper_size="0"
       apply_no_weight="true"
       apply_with_weight="true"
       only_selected="false"
       uniform="false" />
    <inkscape:path-effect
       effect="bspline"
       id="path-effect7"
       is_visible="true"
       lpeversion="1.3"
       weight="33.333333"
       steps="2"
       helper_size="0"
       apply_no_weight="true"
       apply_with_weight="true"
       only_selected="false"
       uniform="false" />
  </defs>
  <g
     inkscape:label="Layer 1"
     inkscape:groupmode="layer"
     id="layer1"
     style="opacity:1">
    <path
       d="m 12.413296,27.312192 0.362131,0.53894 c -0.724267,-0.0213 -1.482616,-0.09161 -1.627468,-0.402606 0,-0.0149 0.0042,-0.02982 0.0086,-0.04473 0.404739,-0.106516 0.751959,-0.112901 1.256818,-0.0916 z m 3.847133,1.640249 0.174675,0.532552 -0.408996,0.01704 0.09798,-0.545327 a 1.459184,1.459184 0 0 0 0.136334,-0.0064 z m 1.393147,3.887609 c -0.362132,0.332312 -0.641187,0.553852 -0.856336,1.058709 -0.298227,-0.244973 -0.453731,-0.73066 -0.549593,-1.273859 -0.106504,-0.592193 -0.140593,-1.250426 -0.221539,-1.742501 l 0.02556,-0.251362 0.419647,-0.02982 1.069358,2.023685 0.112901,0.213021 z m -0.54107,-4.988918 a 128.93435,128.93435 0 0 1 0.164027,-1.090661 l 0.138463,-0.0086 c -0.102251,0.366391 -0.204498,0.732785 -0.30249,1.099182 z m -0.291837,-4.946316 1.91718,0.519768 a 4.2071364,4.2071364 0 0 0 -0.0086,0.08522 c -0.892552,0.660362 -1.716936,0.950065 -2.160018,2.142977 l 0.168286,-2.654227 0.08308,-0.09161 z m 1.789365,-2.747953 c -0.123552,1.235514 0.05113,1.780846 0.266278,2.547714 0.34083,0.242844 0.477159,0.389828 0.36639,0.749831 -0.575152,-0.285445 -1.184386,-0.583675 -2.06629,-0.536811 a 5.9624176,5.9624176 0 0 1 -0.0639,-0.07456 c 0.247103,-0.973499 0.728526,-1.572081 1.101313,-2.343211 l 0.398344,-0.345095 z m 2.756475,-1.644509 0.08308,-0.0064 c -0.264144,0.911728 -0.370654,3.014231 -0.832907,3.849267 -1.092791,-0.517639 -1.071486,-2.760735 0.151244,-3.646895 l 0.596457,-0.195978 z m -1.018234,6.752718 0.920242,0.999064 c -0.362131,1.111962 -1.045923,1.949127 -1.335631,3.237897 l -0.543198,-0.0426 c -0.464383,-1.297288 0.696572,-3.410442 0.894682,-4.356248 l 0.852078,0.09799 c 0.106503,0.266277 0.208757,0.53255 0.313137,0.800954 l -1.10131,-0.739178 z m 2.517891,-6.761241 c -0.09373,1.08001 0.144852,1.640254 0.208762,2.475291 -0.541074,0.276925 -1.084274,0.549587 -1.625343,0.824383 a 11.209089,11.209089 0 0 1 0.794565,-3.252811 z m 0.630539,-1.64025 0.121421,-0.0086 -0.183197,0.526157 -0.360001,0.02342 0.276922,-0.325919 z m 0.121421,5.037912 -1.627472,1.001192 c 0.03408,-0.604974 0.805215,-1.42084 1.450665,-1.646638 l 0.149115,0.08095 z m 1.086399,-3.787486 c -0.100119,0.55811 -0.198109,1.114091 -0.293967,1.672203 l -0.304619,0.191719 -0.161892,0.176804 c -0.293968,-0.413258 -0.368525,-1.427229 -0.30462,-2.19836 z m 1.082139,-1.256815 c 0,0.0213 -0.0042,0.03834 -0.0064,0.05538 l -0.415392,0.398345 c -0.276926,0.106517 -0.311009,0.102251 -0.660362,0.08947 0.04473,-0.181068 0.09586,-0.362136 0.144852,-0.5432 z m 1.086398,-2.198364 -0.485682,1.09705 -1.682855,-0.121421 0.0064,-0.08947 c 0.692314,-0.319531 1.299423,-0.698707 2.160019,-0.888294 z m -0.877637,2.854462 0.178934,-0.106516 0.155505,0.549593 -0.5432,-0.106516 0.208761,-0.338702 z m 1.41871,1.625338 c -0.64545,0.251367 -1.538002,0.181068 -2.055642,0.468646 a 165.96781,165.96781 0 0 0 -0.112901,-0.660361 l 0.336572,-0.440953 c 0.547458,0.213021 1.094921,0.430301 1.640249,0.64545 z m -1.386758,0.988416 -0.737048,0.02768 c -0.01704,-0.07668 -0.02982,-0.153375 -0.04473,-0.232191 0.51764,-0.210887 1.386759,-0.230063 2.168542,-0.317398 l -0.824388,0.45373 z m 1.927828,0 c -0.61989,0.155504 -1.214213,0.702962 -1.621079,1.129003 -0.07882,-0.498469 0.877638,-1.376111 1.335632,-1.650901 0.202368,0.181064 0.223672,0.161892 0.285447,0.521898 z m 1.086398,-6.567396 -0.0086,0.08521 -0.651839,0.394085 -0.967107,0.0703 0.0086,-0.08521 z m -0.87764,1.648772 -0.208758,-0.308879 c 0.489943,-0.411129 1.569952,-0.185326 2.170668,-0.123551 z m 4.852584,-1.61895 c 0.905335,0.07456 1.733982,0.287579 2.36452,0.681663 l 0.166153,-0.0106 -0.100119,0.140596 -0.866989,0.25562 c -0.521899,-0.07243 -1.043797,-0.149113 -1.563567,-0.223667 l -3.433873,-0.487817 0.0086,-0.0703 a 11.449802,11.449802 0 0 1 3.42535,-0.283315 z m 3.606423,-0.289706 -0.191716,0.259884 a 2.6201407,2.6201407 0 0 1 -1.427233,-0.549592 l 1.627472,0.206631 z m 2.888545,2.032208 0.44947,-0.170416 0.466517,0.400477 c -0.06391,0.457989 -0.504858,0.832907 -0.843559,1.278115 l -0.259885,0.01704 c -0.707226,-1.171607 -1.599778,-2.451857 -3.16547,-2.903457 l -0.06817,-0.138462 0.632668,-0.255625 c 1.062963,0.370654 1.949128,0.933024 2.935409,1.256818 0.127811,0.308874 0.08733,0.204497 -0.149115,0.515506 z m 1.307941,2.60523 -0.123552,-0.121421 -0.268402,0.01916 0.447336,-0.426042 z m 0.479294,6.066797 c 0.732785,0.634798 0.920243,1.555041 0.615627,2.747953 -0.315271,-0.707225 -0.628409,-1.416581 -0.945805,-2.123806 0.106504,-0.157634 0.206627,-0.315268 0.311007,-0.472902 0.0064,-0.05113 0.0106,-0.102251 0.01917,-0.151245 z m 0.21302,-4.942057 -0.0086,0.102251 -0.385567,0.440953 -0.149111,-0.291839 c 0.232192,-0.415387 0.0639,-0.191719 0.368521,-0.234321 z m 0.451601,-0.0064 1.716942,0.636927 a 2.2026223,2.2026223 0 0 1 -0.01494,0.170416 c -0.144853,0.100118 -0.289706,0.19598 -0.434558,0.291837 l -1.719066,-0.634799 0.0149,-0.172545 z m 3.344406,2.200493 -0.9522,-0.632668 -0.132069,-0.255625 c 0.413257,-0.255624 0.353608,-0.242843 0.79031,-0.157633 0.0959,0.34935 0.195972,0.696574 0.293959,1.043794 z m 0.541075,-0.20876 -0.19172,0.20876 c -0.230068,-0.119287 -0.270537,-0.270536 -0.349355,-0.551721 l 0.496341,0.217279 z m -0.40474,-1.574216 -0.136335,0.01061 c 0.149118,-0.142721 0.298224,-0.285447 0.451607,-0.426039 -0.106505,0.138461 -0.213021,0.276925 -0.315272,0.415388 z m 2.575399,2.764994 -0.266273,0.117167 a 490.24325,490.24325 0 0 1 -1.45066,-0.815818 210.33552,210.33552 0 0 1 -0.453726,-0.617757 c 0.75195,-0.553852 0.779647,0.08947 1.488996,0.440948 z m 0.541074,0.485687 -0.541074,-0.198108 0.325922,-0.170416 z m -0.660361,0.88616 c 0.195984,0.394088 0.195984,0.283319 0.660361,0.223673 l -0.8329,0.720003 -0.794564,-1.516698 0.01084,-0.09373 c 0.585797,-0.125681 0.773251,0.0852 1.346277,0.170417 l 0.219406,0.353612 -0.607098,0.142722 z m 0.119275,0.986281 1.084281,-0.592193 c -0.217285,0.489943 -0.500606,0.741308 -0.835045,1.099181 z m 2.168551,2.098243 c -0.293971,0.253492 -0.48569,0.334442 -1.041668,0.381307 l 0.447341,0.049 -0.0085,0.07882 -1.527357,0.647579 -0.03832,-1.95978 1.052319,-1.246166 0.191719,-0.0916 z m -0.543208,-3.007837 c 2.995055,-0.835036 2.415644,0.754091 1.080005,1.966173 -0.362126,-0.653972 -0.722132,-1.31007 -1.080005,-1.966173 z m 2.711747,0.317401 c -1.103451,5.184897 -1.31647,5.468212 -5.21899,7.696394 a 7.0339065,7.0339065 0 0 0 -0.20449,-0.308877 l 0.138455,-0.579412 c 2.545592,-0.724266 3.991988,-2.057772 3.84075,-5.076256 l 1.275988,-1.640249 z m 0.132069,0 c -0.04265,-0.178938 -0.08518,-0.357875 -0.132069,-0.53681 l 0.404727,-0.01278 z m -6.639819,5.042171 0.03832,-0.573023 0.0341,-0.489944 0.374909,-0.125681 c 0.01915,0 0.03627,-0.0042 0.05325,-0.0064 0.106505,0.649708 0,1.129002 -0.21302,1.650902 -0.183201,-0.117167 -0.219418,-0.166157 -0.287585,-0.455865 z m -2.168538,4.809983 0.0085,-0.09586 0.71148,-1.702028 0.149106,-0.357874 1.252568,0.08521 c 0.01915,0.09373 0.03193,0.185326 0.03832,0.272663 0.05542,0.647579 -0.168287,1.165218 -0.398342,1.840491 z m 0.543194,2.206884 0.01494,-0.852077 0.02133,-0.213022 0.915983,0.06817 0.13207,-0.0106 c -0.210888,0.347219 -0.419655,0.694444 -0.626278,1.043792 z m -0.536809,-3.557429 0.05542,-0.02768 0.432427,-0.223672 0.04904,-0.0042 -0.06385,0.227932 -0.25349,0.87125 -0.225803,-0.775391 z m -0.845683,2.737304 -0.244972,-0.244974 c 0.238574,0.166158 0.08313,0.0042 0.244972,0.244974 z M 41.51177,34.588925 c 0.304615,-0.191717 0.634798,-0.132071 1.086394,-0.127811 l -0.134202,0.440952 c -0.37278,0.149111 -0.426034,0.09373 -0.845682,0.04899 z m 0.66462,2.057771 0.419654,0.99267 c -0.323795,0.219409 -0.649714,0.43669 -0.973505,0.658232 -0.289706,-0.398347 0.02556,-1.512438 0.553851,-1.650902 z m -1.071489,-3.450919 -0.136329,0.0106 0.178934,-0.406871 -0.04261,0.398349 z m 1.56143,0.153374 -0.07024,-0.04473 0.238574,-0.502724 0.0788,-0.0019 0.225803,0.528287 z m 3.755546,-7.146805 -0.02976,-0.185328 c 0.14272,-0.174674 0.234321,-0.283314 0.479292,-0.362132 l 0.06385,0.323791 c -0.106503,0.0703 -0.21302,0.138463 -0.317391,0.210886 z m -0.02976,1.342023 c -0.09795,0.12994 -0.27267,0.202368 -0.396222,0.306748 L 45.84891,25.103165 Z m -0.994801,3.685239 c 0.357872,-0.200238 0.408992,-0.0149 0.451594,0.468643 h -1.08427 l 0.01915,-0.170418 z m -0.532557,-1.518831 0.244984,-0.208758 0.198104,0.353612 -0.09157,0.195977 -0.451607,-0.05325 z m -0.100119,1.457055 -0.564496,0.532547 -0.368523,-0.06177 -0.149117,0.0149 c 0.08518,-0.168287 0.174683,-0.336572 0.262019,-0.502724 z M 42.719653,30.854691 C 42.49385,30.697057 42.655803,30.718362 42.613149,30.59907 Z m 1.708427,-2.453983 -1.831979,-0.950067 c 0.08518,-1.256814 0.238587,-2.701088 0.115059,-3.996248 1.412323,0.511246 2.679782,2.809728 1.716944,4.946315 z m -1.288771,0 c 0.449461,0.238581 0.42604,0.455861 1.050185,0.647577 0.108673,0.40687 -0.05747,0.568763 -0.317404,1.001193 l -0.664614,-0.02556 c -0.136335,-0.724266 0.01277,-1.139655 -0.06819,-1.623208 z m 0.123551,3.555296 c -0.227936,-0.157633 -0.06385,-0.136332 -0.106503,-0.255625 z m 3.670319,-5.291405 0.006,-0.102252 0.489943,-0.360001 c 0.08518,0.562373 0.05325,1.499657 -0.07458,2.198362 -0.289705,-0.225801 -0.342969,-1.18013 -0.421787,-1.736109 z m 0,1.736109 c 0.110721,-0.183195 0.221539,-0.366394 0.328055,-0.549591 l -0.19172,0.541069 z m 3.16334,-1.642383 0.09157,-0.0064 c 0.02554,2.106762 -1.273856,2.490199 -2.982271,3.280501 l -0.27267,0.01916 1.065101,-2.206879 z m -3.216592,-4.115491 c 0.01699,0.05538 0.03614,0.108637 0.05109,0.164027 l -0.134202,0.09799 -0.406872,-0.549589 z m -0.489943,0.915987 0.01494,-0.09585 a 7.1361558,7.1361558 0 0 1 0.119275,-0.0086 l 0.409004,0.549592 c -0.315267,-0.14913 -0.366386,-0.187472 -0.54319,-0.447356 z m 0.541075,1.405929 -0.730662,0.688054 -1.569959,-2.27931 -2.036457,-1.768064 0.447342,-0.34935 c 0.986271,0.426037 2.711733,1.237643 3.058955,2.251614 0.11289,0.330182 -0.276922,0.602849 -0.01277,0.877641 0.315272,0.328052 0.630543,0.09373 0.845696,0.577286 z m -4.575667,3.436006 0.166156,0.06604 0.07241,1.584864 -0.253501,-0.05963 C 42.10184,29.815217 41.935685,28.997221 42.152964,28.641478 Z m -1.201428,2.756472 0.174675,-0.0064 0.181068,0.4303 -0.276925,0.106505 -0.266279,0.01278 c 0.0639,-0.181063 0.127815,-0.36213 0.187461,-0.543198 z m -0.49421,8.789187 -0.234321,-0.803084 c 0.334443,-0.09585 0.666756,-0.191715 1.001193,-0.291837 l 0.08521,-0.0042 a 1.1226131,1.1226131 0 0 0 -0.0106,0.07456 l -0.841542,1.022455 z m -0.777579,-2.198361 c 0.100119,-0.323789 0.170415,-0.372784 0.351483,-0.551721 l 0.149115,0.05965 0.04261,0.140592 -0.334437,0.32805 -0.208762,0.0213 z m 0.255626,0.549592 -0.255626,-0.281189 0.543199,-0.268403 -0.140594,0.538939 z m -0.570894,2.492327 c -0.07668,-0.05965 -0.149115,-0.121421 -0.225802,-0.185326 l 0.166156,-0.0106 0.837167,-0.647581 0.08095,0.660362 -0.641186,0.438823 z m 0.04261,6.296859 c -1.305814,0.05535 -2.087598,-0.276958 -3.152696,-0.370687 L 35.236216,44.30263 35.001895,44.059791 c 2.049249,-0.242843 3.338016,-1.231253 4.856848,-1.915046 0.536806,0.511247 1.75315,3.114347 0.681662,4.266781 -0.255626,0.394087 -0.543199,0.434559 -0.933028,0.675273 z m -5.606678,-2.71174 0.489945,-0.03195 c 0.739179,0.496336 1.241907,1.384629 1.595515,2.200493 l -2.17067,-0.628442 c 0.161894,-0.549591 0.230063,-1.107703 0.0852,-1.540133 z m -1.559304,-2.074809 2.445466,-0.705097 3.842874,0.374914 0.06817,0.193849 c -1.143914,0.515507 -2.445463,0.95007 -3.757664,1.61469 -1.42084,0.112902 -1.763803,-0.417517 -2.747953,-0.766872 l 0.151247,-0.711484 z m -0.15124,2.590319 0.049,-0.477165 0.935155,-0.0703 c 0.07668,0.415389 0.157638,0.64758 0.04261,1.099181 L 32.2923,44.888465 Z m -1.086404,0.860595 0.364266,-0.200239 c 0.447341,-0.296095 0.78178,0.098 1.263207,0.253497 l -0.191721,0.187456 -1.433621,-0.240714 z m 1.054451,-0.858466 a 33.997923,33.997923 0 0 1 -0.353616,-0.1598 l -0.157638,-0.389825 0.543204,0.03408 z m -1.595519,0 0.543199,0.466512 c 0,0.287578 -0.02556,0.255625 -0.09161,0.632668 z M 29.258891,42.83283 c 0.509116,-0.155505 1.186518,-0.121421 1.949128,-0.138463 l -0.709356,0.549592 -1.459182,-0.142722 z M 27.955217,15.28301 c 1.007581,-0.962849 3.533994,-0.675272 4.166662,-0.0639 l 0.170416,-0.0149 c -0.841429,0.786038 -2.145108,0.875508 -2.946062,1.653032 -0.628409,-0.417519 -1.148178,-0.685926 -1.391016,-1.574215 z m 5.538505,1.574215 0.426041,0.483553 c -0.379177,0.0213 -0.77752,0.04473 -1.175867,0.07882 -0.896813,0.07668 -1.782977,0.210891 -2.402863,0.53255 l -0.08095,0.0042 a 108.9872,108.9872 0 0 1 -0.134203,-0.210888 7.7624334,7.7624334 0 0 1 3.289022,-0.8819 z m 2.113155,-2.747952 c 0.700836,0.702962 1.74676,1.12048 2.108896,2.198361 -1.469836,-0.683793 -3.732105,-0.673144 -4.878149,-1.761672 1.009711,0.215151 1.870312,0.134204 2.769253,-0.436689 z m 0.483556,3.847133 2.010905,0.276925 0.157633,-0.01278 -1.612556,1.384629 C 36.390786,19.096032 36.33114,18.405848 36.09043,17.956377 Z m 2.583927,2.351734 -0.415389,-0.0639 0.54107,-0.08947 -0.127811,0.153374 z m -0.415389,-1.31433 0.496336,-0.487817 0.04473,0.549593 -0.360002,-0.07882 z m 0.984152,18.191875 -0.238585,0.0106 -0.204497,-0.191716 0.157633,-0.206632 0.383436,-0.14911 -0.09798,0.538939 z m -0.43243,1.005451 c 0.0639,-0.07668 0.13207,-0.153374 0.200239,-0.230062 l 0.01704,-0.21302 0.315268,0.500594 -0.543199,0.049 z m -0.21515,1.755279 -0.336572,-0.404737 1.08427,-0.144852 -0.517637,0.532547 z m 0.204498,1.648771 -1.084268,-0.12994 0.766871,-0.419647 0.319526,0.549587 z m -0.760479,-1.55078 0.219409,0.208758 -0.786042,0.200238 -0.841426,0.04261 1.171609,-0.549592 z m -3.0334,-23.736772 c 0.632668,0.01704 1.301551,0.176807 1.625341,0.549591 -0.436692,-0.0426 -1.222736,0.02768 -1.42084,-0.308878 z m 0.549591,2.198359 c 0.308879,0.270537 0.417518,0.590068 0.362132,1.099186 -0.477161,-0.164028 -0.353609,-0.685926 -0.362132,-1.099186 z m 0.532547,3.465832 0.01916,-0.09373 c 1.080009,-0.234321 1.312202,0.140593 0.820125,0.477165 -0.426041,-0.05965 -0.617756,-0.219409 -0.837165,-0.383436 z m 1.391022,14.125327 0.236451,0.05965 a 3.1739916,3.1739916 0 0 0 -0.0086,0.07668 l -0.532547,0.41326 0.221539,-0.543203 z m -0.29823,-13.407454 0.404736,-0.334438 0.129945,0.549589 -0.54107,-0.119287 0.0042,-0.09586 z m 1.618949,14.698354 -1.310071,0.342962 -0.315267,0.0149 c 0,-0.01704 0.0042,-0.0362 0.0086,-0.05325 0.489947,-0.09799 0.805218,-0.259885 1.094921,-0.496335 l 0.460123,0.08521 0.0639,0.106516 z m -0.935155,-1.2909 -0.149113,-0.304619 0.372783,-0.244973 0.170415,0.09161 -0.21302,0.443082 z m -3.401924,3.802399 0.645449,-0.502725 1.998123,0.170415 0.06817,0.149116 -1.350546,0.77965 c -0.500595,-0.08308 -0.933024,-0.30462 -1.192908,-0.609239 l -0.170415,0.01278 z m -1.003321,0.04686 1.001192,0.549592 -1.625339,-0.287578 c 0.208758,-0.0852 0.415389,-0.174674 0.624147,-0.262014 z m -0.08095,1.122614 a 15.166993,15.166993 0 0 0 -0.0064,0.132075 l -0.308879,0.170415 -0.227932,0.02982 0.0086,-0.132074 c 0.236454,-0.313138 0.195979,-0.208758 0.53255,-0.200239 z M 30.822454,18.695551 A 12.828038,12.828038 0 0 0 30.66695,18.531524 c 0.538939,-0.293967 1.388887,-0.434558 2.223925,-0.500593 0.688054,-0.05752 1.365456,-0.0639 1.851139,-0.07456 l 0.264145,1.648773 c -0.709356,-0.07668 -1.384626,-0.170417 -2.115284,-0.202373 a 11.077017,11.077017 0 0 0 -1.891612,0.06817 87.455184,87.455184 0 0 0 -0.176809,-0.775391 z m 0.796695,22.058178 0.132074,0.234319 -0.127815,0.492078 -1.497528,0.115033 c 0.159768,-0.489945 0.398349,-0.726396 0.656102,-1.099179 z m -1.849011,-1.906528 c -0.681662,-0.03834 -1.614686,-0.536809 -1.814924,-1.09918 l 2.170666,0.551723 z m 0.762612,-0.02982 -0.40687,0.02982 0.01279,-0.13207 0.4516,-0.417518 c -0.0213,0.172546 -0.03834,0.345091 -0.05752,0.519765 z m -1.491138,-20.102657 0.660361,-0.20876 0.423907,0.532551 -0.447341,0.01704 -0.639057,-0.340831 z m -0.0086,23.602571 c -0.0362,0.119287 -0.06817,0.240709 -0.102251,0.36213 a 1.8830929,1.8830929 0 0 0 -0.157633,0.0149 197.36264,197.36264 0 0 0 -0.274797,-0.549588 l 0.543199,0.05538 z m 0.30036,-2.370911 1.265337,0.255626 0.06817,0.170415 -0.982016,1.222732 -1.18652,-0.174675 z m 9.466589,-17.229022 0.244974,-0.360001 0.08947,-0.0019 0.681663,0.170417 0.06817,0.09799 -0.760479,0.281185 a 88.445726,88.445726 0 0 0 -0.323791,-0.187457 z m 1.467705,-1.776583 -0.383436,-0.234321 c 0.389829,0.142723 0.166157,-0.01916 0.383436,0.234321 z m -0.12353,2.513635 -0.259884,-0.221539 0.543204,-0.328053 z m -0.259884,3.847132 0.843559,0.208761 c 0.227931,0.08947 0.221539,0.112901 0.240713,0.340831 -0.362134,-0.138463 -0.96711,-0.234321 -1.084272,-0.549592 z m 0.0852,-1.497528 0.115034,-0.14911 0.342965,0.547457 -0.543204,-0.106516 z m -10.98542,18.087494 0.05752,0.144852 -0.730655,0.279055 -0.355743,0.02768 0.0086,-0.07456 0.249232,-0.389825 c 0.345095,-0.159763 0.353613,-0.05538 0.771132,0.01278 z M 27.414148,16.305479 c 0.4729,0.353612 0.596453,0.788171 0.521895,2.20049 -0.311009,-0.398344 -0.500595,-1.244033 -0.521895,-2.198362 z m 0.311008,-1.097051 -0.03834,0.398347 -0.270532,0.01916 0.311008,-0.417518 z m -0.311008,0.549588 c -0.0149,0.132074 -0.02556,0.264148 -0.04261,0.396217 l -0.500599,-0.0916 0.413259,-0.296098 0.12781,-0.0086 z m 0,31.884772 0.268403,-2.799076 1.900134,-0.500598 -1.998121,3.197424 z m 0.1342,-7.52385 0.291836,-0.172549 c 0.266274,0.315271 0.02768,0.769002 -0.223668,1.099184 -0.208762,-0.195979 -0.232191,-0.31953 -0.176809,-0.764742 l 0.106516,-0.161893 z m -1.761672,-0.268407 0.62415,-1.003322 1.001188,0.587934 c -0.340831,0.536809 -0.68805,1.07362 -1.033142,1.61043 -0.311011,-0.276925 -0.502727,-0.683795 -0.592196,-1.192912 z m 0,4.305126 1.001192,-0.911723 0.470771,0.04261 0.155509,0.25562 c -0.04261,0.268408 -0.08095,0.534681 -0.119287,0.800955 z m -1.625338,-0.745567 1.192909,-0.715749 0.907463,0.142727 0.06817,0.12568 -0.956458,0.830778 c -0.47716,-0.049 -0.794561,-0.176808 -1.043792,-0.394088 l -0.170416,0.01061 z m -0.159764,-1.062968 0.436689,-0.202368 0.187457,0.04047 0.07668,0.08947 -1.263207,0.419647 -0.362132,-0.127811 z m -1.467707,-0.515505 0.319529,-0.773266 c 0.592197,-0.07668 0.73279,0.21515 1.177997,0.400477 l 0.127815,0.195979 -0.662492,0.453731 -0.538939,0.0362 z m -1.086399,2.255875 0.790302,-1.393151 c 0.524028,0 0.587933,0.0426 0.803084,0.319531 0.09585,0.161897 0.01277,0.07456 -0.195977,0.110769 l -0.049,0.479294 0.822258,0.127814 c -0.161897,0.402606 -0.18746,0.34935 -0.4303,0.604974 -0.809476,0.04261 -1.173737,-0.110768 -1.738241,-0.249232 z m -0.911724,-1.942738 1.378236,0.415388 0.07668,0.164023 -0.884031,1.069361 -1.284507,-0.421781 z m -5.310578,-1.48688 0.01704,-0.164022 0.769002,0.592192 0.06604,0.157635 c -1.599775,1.235512 0.847818,5.261583 3.631982,2.652094 l 1.197172,0.481424 c -0.460122,0.820124 -1.250424,1.143913 -2.083332,1.6083 -1.991732,0.166153 -4.780156,-3.086654 -3.600029,-5.327623 z m 1.857529,0.562374 0.02982,0.372784 C 16.963404,41.48013 16.81429,41.371494 16.669438,41.258589 l -0.100119,-0.215149 0.511246,0.176808 z m 2.739434,2.334694 -0.990541,0.766871 c -1.951261,0.204498 -2.741563,-1.146044 -2.805468,-2.805467 l 0.381306,-0.460124 0.166152,-0.01278 c 0.982023,0.77326 1.851141,1.953391 3.184646,2.343216 z M 17.932643,35.545405 C 17.755839,35.417594 17.745186,35.35369 17.655718,35.13641 l 0.370654,-1.410188 0.432433,-0.379177 0.279056,0.408995 z m -0.276925,0.475036 0.854211,-2.021557 0.174674,-0.102251 c 0.394088,0.694448 0.964981,1.009716 1.137526,1.953392 l -1.286637,1.344153 A 2.6052293,2.6052293 0 0 1 17.653588,36.02257 Z m 1.625342,1.682853 1.086398,-1.058708 0.538939,1.101313 a 204.22613,204.22613 0 0 0 -1.625337,-0.04261 z m 2.709607,-11.108967 c -0.513376,1.09705 -1.197169,1.842616 -1.606167,2.905585 -0.178935,-0.96498 0.898941,-2.351739 1.246165,-3.203816 l 0.166156,-0.09586 z m 0,-3.024883 c 0.807343,-0.249233 1.348416,-0.705092 1.925697,-1.216338 l 0.244974,0.732785 -0.685926,0.915986 -1.484745,-0.4303 z m 2.711741,0.05752 -0.293968,0.374918 -0.247102,-0.04261 0.0042,-0.05965 0.494206,-0.447341 z m -0.426042,-2.368775 0.08521,-0.0042 0.340832,0.717879 -0.127811,0.381305 c -0.496331,-0.25991 -0.47716,-0.568789 -0.298226,-1.094947 z m -0.102251,15.935993 0.500594,0.360002 -0.513376,-0.225798 a 2.1941016,2.1941016 0 0 1 0.01278,-0.134204 z m -0.0086,0.551722 0.53681,0.23219 a 1.9171761,1.9171761 0 0 0 -0.0086,0.0639 l -1.150229,0.803085 c -0.330183,-0.149115 -0.370653,-0.445211 -0.468642,-0.766871 l 0.01061,-0.06817 z m -1.604038,-1.101314 0.51551,0.208761 -0.276926,0.159763 -0.266277,0.02982 z m -0.02768,-10.991806 c 0.651844,0.183193 0.445213,0.05963 0.472906,0.547459 -0.298227,-0.174675 -0.319532,-0.257756 -0.472906,-0.549593 z m 0,9.818069 0.04473,-0.475032 c 0.253496,0.176806 0.340831,0.281185 0.498468,0.549588 a 129.96324,129.96324 0 0 0 -0.543203,-0.07456 z m 1.086443,-6.865621 c -0.204499,0.262015 -0.19598,0.191716 -0.5432,0.342961 l 0.236452,-0.549592 0.304618,0.206631 z m 0,-2.211141 -0.340832,0.355742 c -0.340831,-0.19172 -0.181068,-0.115034 -0.02768,-0.470775 l 0.202369,-0.07882 0.164028,0.193849 z m -0.04473,-0.935157 -0.498464,-0.357873 c 0.38343,0.146981 0.293966,0.05752 0.498464,0.357873 z m -1.041668,10.086474 0.543204,0.43243 c -0.276926,-0.0064 -0.426041,-0.06604 -0.543204,-0.43243 z m 1.627473,-0.0213 -0.221544,0.0213 -0.189586,-0.34935 -0.13207,-0.170414 0.293967,-0.02982 c 0.08307,0.176803 0.164022,0.353613 0.249233,0.528287 z M 23.863109,25.346035 23.618136,25.103191 c 0.238579,0.166157 0.08095,0.0042 0.242839,0.244974 z m 0.03194,9.05333 -0.276924,-0.575152 0.117154,-0.472905 0.06816,-0.0042 0.357871,1.099184 a 79.264581,79.264581 0 0 0 -0.266273,-0.04686 z m -1.420839,6.396976 0.05963,0.07243 -0.193845,0.726397 a 1.4847463,1.4847463 0 0 1 -0.890424,-1.099181 l 1.024628,0.30249 z m -1.567827,0.798825 0.543199,0.481423 C 21.102366,41.923218 21.081063,41.929612 20.906388,41.59517 Z m 0.937288,-4.873889 0.0639,0.475035 -0.457993,-0.549589 z m -0.53681,2.571148 -0.400478,-0.994799 c 0.475034,0.181063 0.845689,0.724263 1.086399,1.09918 z m 0.42604,-9.78612 0.1342,-0.0042 -0.396214,0.549589 c -0.0639,-0.136329 0.0149,-0.266274 0.234321,-0.426037 l 0.02768,-0.121421 z m -0.283319,4.724775 -0.108637,0.217279 -0.311007,-0.24071 a 248.80685,248.80685 0 0 1 -0.12355,-0.262011 l 0.426041,-0.04686 z m -3.796009,4.616133 c 1.086402,0.707226 2.933279,1.363325 3.25281,2.747953 a 9.0192485,9.0192485 0 0 1 -3.25281,-2.747953 z m 2.818251,-0.532546 0.434559,0.532546 -1.084269,-0.549587 z m 3.970684,1.631726 -0.824383,-0.830773 1.442139,-1.367587 0.185327,1.506046 z m 0.803083,0.918118 0.142723,-0.357873 0.191719,-0.0106 0.206628,0.549592 z m 0.730657,-2.017298 -0.189587,-0.549587 0.394087,0.07242 z m -0.730657,-18.5114 0.0042,-0.049 c 0.178935,-0.04261 0.357873,-0.0852 0.53681,-0.132073 l -0.374925,0.549593 z M 19.777386,31.70041 19.28105,30.601229 c 0.636928,0.138463 0.532547,0.592194 0.496336,1.099181 z m -1.327099,0.549588 c -0.464384,-0.32166 -0.760479,-0.962848 -0.796695,-1.648773 0.952197,0.223674 0.898946,0.598586 1.086401,1.467705 z m -0.56024,-2.869374 c -0.692315,-0.653969 0.315267,-3.269852 0.758348,-3.872696 0.234321,-0.296097 0.528288,-0.289708 0.915983,-0.404737 l 0.257755,0.06604 c -0.651839,1.154567 -1.090662,2.726652 -1.246165,4.332819 z m -1.011846,8.917002 0.330183,0.555979 -0.296101,0.692311 -0.170414,0.181067 c 0.242842,0.03408 0.298229,-0.174673 0.660361,-0.47077 0.702967,1.139651 1.776583,2.230314 2.960972,2.850199 l -0.64545,1.137525 -1.95978,-1.261076 c -0.223669,-0.415389 0.0852,-0.892549 -0.274795,-1.146044 -0.32592,-0.230063 -0.745568,0.10225 -1.077881,0.0019 l -0.920242,-0.843559 c 0.270534,-0.604975 0.530418,-1.197167 1.065099,-1.506046 z m -1.87457,-6.062539 a 14.165801,14.165801 0 0 1 0.317397,-1.627472 l 0.07243,-0.0064 0.283313,1.63386 0.149116,0.852077 c 0.426041,1.18865 0.856337,2.375171 1.286637,3.559559 -1.031011,-0.562373 -1.667944,-1.863922 -1.576344,-3.61494 -0.247103,0.564499 -0.04261,1.452792 0.03834,1.951257 -0.632668,-0.53681 -0.713615,-1.604038 -0.573023,-2.747953 z m -0.941547,0.564499 a 2.0045141,2.0045141 0 0 1 -0.183198,-0.660357 4.3264272,4.3264272 0 0 1 0.0086,-0.926635 l 0.09373,-0.19598 0.419651,-0.415389 -0.236455,1.535874 -0.102251,0.660357 z m 37.751321,5.495906 -1.084257,-0.417519 1.052306,-0.129941 0.03193,0.549594 z m -28.693731,8.946824 0.283318,-0.149116 -0.328048,0.547463 0.04261,-0.396218 z m -8.177819,-18.83945 -0.462253,-0.04261 c -0.575155,-0.189586 -1.114092,-0.860599 -1.163089,-1.606167 0.87977,0.07882 1.178001,0.496334 1.61256,1.005452 0.0042,0.21302 0.0106,0.42817 0.01279,0.643321 z m -0.0639,-0.04473 c 0.0639,-1.18652 -0.841429,-1.927827 -2.017296,-1.895875 0.200239,-1.665813 1.648773,-2.517891 2.939668,-3.078135 l 0.249237,-0.01916 c -0.215151,2.091854 -0.05113,3.894001 -0.832912,5.704666 -0.577281,1.333501 -2.624396,1.307941 -2.513627,3.365709 l 0.0149,0.170415 c 0.291837,2.735172 3.265588,3.291153 3.676717,5.696144 -4.409507,2.243095 0.964976,11.669212 4.452108,6.132832 0.626279,0.08947 1.18226,0.372784 1.959781,0.100119 0.36213,-0.200239 0.432429,-0.362136 0.573021,-0.779653 l 1.246165,0.64545 0.0639,0.157633 c -1.141785,0.886164 -1.946999,2.102503 -3.17399,2.93328 l 0.117155,-0.336572 -0.319532,-0.05752 -0.176804,0.09585 -0.159764,0.745568 c 0.700834,0.715743 2.824637,-1.872442 3.446657,-2.379429 -0.351484,1.229125 -1.220602,1.861793 -1.704159,2.986532 l 0.149115,0.153376 c 0.915982,-0.656099 2.038596,-2.513627 2.209012,-3.92595 l 1.371847,0.227932 c -1.719066,2.324041 -6.134963,7.43651 -8.456878,8.801969 0.353613,-1.109834 0.915986,-1.957652 1.201431,-2.869375 l -0.166157,0.01277 a 30.676949,30.676949 0 0 0 -0.149111,-0.153374 c -0.564503,1.111963 -1.495397,1.893746 -1.661555,3.393403 a 1.4655746,1.4655746 0 0 0 0.370655,0.381306 c 2.760734,-0.460123 7.370476,-7.398172 9.573099,-9.294047 -0.596451,5.985849 -3.804527,6.918878 -6.586566,10.544468 2.528543,-1.261074 4.062287,-4.477667 6.224436,-6.262773 -0.238586,2.498719 -0.832908,8.086224 -2.328306,9.081024 l 0.247102,-0.01916 c 1.678597,-1.043798 1.776584,-5.336142 2.336825,-7.530243 l 0.238583,-2.307 2.396469,-3.36571 0.174676,-0.09586 c 0.268407,0.841429 1.482616,1.755282 2.796946,1.51031 l 0.94368,-0.396216 2.368776,0.886161 c 0.311007,3.408314 0.191715,5.319101 -1.96617,7.91368 2.204749,-1.126875 3.014227,-5.468216 2.279307,-7.773088 5.127381,0.594323 4.920754,-1.135392 3.949384,-4.869624 l 0.901071,0.0149 c -0.166152,-0.249236 -0.615624,-0.06391 -0.958587,-0.255625 -0.155504,-0.100119 -0.125681,-0.08095 -0.221539,-0.230061 1.218471,-1.373977 4.153877,-0.0086 3.536117,2.272918 0.843563,-1.891612 -1.020355,-3.574467 -2.81611,-2.897065 0.766868,-0.909593 1.695633,-1.657293 2.181315,-2.860855 l 0.174671,-0.09373 4.217791,4.430807 0.249236,-0.01916 0.19172,-0.259884 c -1.342024,-1.589147 -2.681914,-3.180402 -4.019673,-4.771659 l 0.430293,-0.195978 a 0.87338026,0.87338026 0 0 1 0.743445,-0.257752 48.040174,48.040174 0 0 1 -0.213021,-0.106504 c 2.153624,0.21515 4.905838,2.010904 7.153195,1.431493 0.206623,-0.360006 0.217274,-0.553851 0.09157,-0.905335 2.394342,0.05965 6.701602,-0.741307 8.073444,-1.904394 -3.685234,0.773262 -7.834857,1.035276 -11.217603,0.583671 l -2.997186,-0.351479 -0.168287,0.01278 0.807347,-1.448533 c 2.471028,-0.04687 8.951079,-0.108636 10.26115,-1.659425 L 56.346435,32.731404 55.21743,32.569511 a 0.83929709,0.83929709 0 0 0 -0.127816,0.419648 l 0.894683,0.09585 c -1.942736,0.489946 -7.353433,1.523092 -9.119365,0.920246 -0.185333,-0.225802 -0.04904,-1.009715 -0.04048,-1.574214 a 2.0620294,2.0620294 0 0 0 -0.01277,-0.30249 c 2.539194,-0.758349 4.424412,-2.466767 5.197675,-5.044305 0.440945,-1.476222 0.149119,-3.414703 1.103438,-4.334948 0.609242,0.05325 0.732794,0.311009 1.180136,0.485687 -0.236454,-0.328049 -0.575159,-0.511247 -0.999067,-0.660363 L 52.4993,23.122081 c -0.726396,0.281189 -1.486876,-0.45373 -2.720264,0.119287 -1.001186,-0.856335 -1.565682,-2.209012 -2.918368,-2.726647 l -0.138458,-0.234323 1.640247,-1.595515 c -0.536809,0.449471 -1.084269,0.979889 -1.631729,1.51244 l -1.099173,-0.492075 -0.06385,-0.159765 c 1.252555,-0.886163 2.364523,-1.214213 3.789618,-0.933027 0.06602,0.132073 0.136334,0.262014 0.204502,0.394087 -0.06602,0.112902 -0.125684,0.144852 -0.183202,0.176805 l -0.479292,-0.12781 c 0.206635,0.121421 0.421787,0.159763 0.636928,0.198108 l 0.181069,-0.176808 0.02771,-0.247103 C 49.434032,18.55281 49.338166,18.352575 48.726804,18.33127 l 0.291838,-0.430299 c -0.69871,0.481423 -2.117419,0.609237 -2.811864,1.026756 l 1.606171,-1.265339 0.191708,-0.257755 -2.971621,1.772323 c -0.634796,-0.04261 -1.310061,-0.340831 -1.65303,-0.696573 a 84.057518,84.057518 0 0 0 -0.164021,0.01278 l 3.527598,-2.385821 -0.05747,-0.240714 c -1.33776,0.779655 -2.677651,1.559304 -4.013289,2.341087 l -1.28237,-0.315267 0.119287,-1.152438 9.196058,-7.2213639 0.16402,-0.01278 -0.129937,-0.3174 c -0.340836,-0.161896 -1.740365,0.9734999 -2.268656,1.3122009 -2.03647,1.305812 -3.836485,2.931149 -5.83887,4.111276 0.826515,-1.050186 2.338957,-2.096112 2.590314,-3.625593 l -0.404728,-0.05112 -0.630542,0.53681 0.685927,-0.298227 c -0.443088,1.348413 -2.449727,3.755535 -3.582997,4.518143 l -0.13207,-0.317398 c 0.737048,-1.239775 1.463445,-2.907719 1.122613,-4.498974 l -0.61776,-0.362133 -0.662487,0.049 c 0.423907,0.168287 0.711485,0.208758 1.022493,0.41539 0.198109,1.542261 -0.560241,2.586055 -0.96924,3.834349 l -0.174676,0.09373 c -0.272666,-0.50485 -0.255624,-0.747692 -0.815865,-0.839292 l -0.049,-0.323789 0.383436,-0.51977 0.264143,-0.183197 c 0.08947,0.170415 0.09373,0.108637 0.121422,0.400477 a 0.8265159,0.8265159 0 0 0 0.125681,-0.417518 l -0.31314,-0.140592 -0.828644,0.877641 c -0.692313,-0.462255 -1.454922,-0.947938 -2.428425,-1.129005 0.551721,-1.143916 2.228187,-2.9822739 1.363328,-4.4329377 -1.056579,-1.763804 -4.662998,0.2684038 -5.983721,1.6679428 a 2.6222709,2.6222709 0 0 0 -0.396214,0.5197699 19.214365,19.214365 0 0 1 0.396214,-0.306749 c 1.303681,-0.9713689 4.773767,-3.2975439 5.525727,-1.4378809 0.788173,1.037404 -0.722136,3.0333959 -1.133262,3.8450019 -1.405929,-0.142725 -2.875767,-0.276925 -4.388206,-0.247103 a 15.810312,15.810312 0 0 0 -4.688558,0.754087 c -0.766871,0.253495 -4.038853,2.213275 -4.164533,2.187712 l -1.491138,-1.444271 -3.118607,-1.565696 -0.01704,0.164026 -0.183198,0.176805 3.996248,3.382751 -0.609234,0.372782 c -1.644604,-1.246144 -2.777866,-2.002363 -5.225462,-2.639291 l -0.413256,0.03195 c 1.429358,0.984148 2.86937,1.885223 4.307256,2.788424 l 0.287574,0.387696 c -1.026752,0.432429 -1.461315,1.331374 -2.328304,1.889485 -1.354802,-0.64758 -2.609491,-1.235513 -4.251871,-1.731852 l -0.115033,0.33657 3.076002,1.981086 0.166155,-0.01278 -0.530421,0.366391 c -0.244973,0.824389 -0.724267,1.780846 -1.124744,2.943932 -1.533739,1.248296 -3.521214,1.173738 -3.830092,3.717193 -0.489946,0.134204 -0.835036,0.176807 -1.282378,0.504857 l -0.03412,0.330174 c 0.281186,0.391959 2.771382,1.446404 3.365709,1.548656 l 0.366395,-0.353613 z m 18.191872,-17.586902 0.227932,0.0426 -0.30462,-0.03834 c -0.05325,0 -0.106516,0.0042 -0.157634,0.0064 0.240711,-0.447342 0.947937,-0.558112 1.627468,-0.509118 l -0.04686,0.323791 -1.329243,0.06604 -0.01704,0.106504 z m 0.950064,0.590066 0.639062,-0.20876 c 0.276925,-0.460123 0.434559,-0.947936 0.293966,-1.3931469 -0.658231,-0.129944 -1.037404,0.02982 -1.653031,0.2897069 a 105.80682,105.80682 0 0 0 -0.334446,0.547458 l -0.127811,0.21302 a 1.2142115,1.2142115 0 0 0 0.127811,0.127811 c 0.208761,0.170415 0.460123,0.230061 0.922376,0.191719 0.127811,0.217281 -0.0213,0.121422 -0.249232,0.181064 l 0.383435,0.05113 z m 15.769843,4.948443 -0.685927,0.127811 0.421775,-0.02982 0.483558,0.208757 -0.732782,1.342023 c 0.377041,-0.445211 0.751951,-0.760479 0.911718,-1.435751 z m -3.940868,21.440421 c -0.170418,-0.304619 -0.35574,-0.504858 -0.541062,-0.551723 0.164021,0.155505 0.353608,0.338702 0.541062,0.551723 z m -2.168539,6.595085 -0.541074,0.315271 0.41539,-0.03834 0.127817,-0.276925 z m 2.168539,-6.595085 c 0.551725,0.622015 0.964982,1.814928 0.845696,2.747953 0.626266,-1.352677 -0.08735,-2.196232 -0.845696,-2.747953 z"
       id="path1-5"
       style="fill:#cccccc;fill-opacity:1;stroke-width:2.13019" />
  </g>
</svg>
