<?xml version="1.0" encoding="UTF-8" standalone="no"?>
<!-- Created with Inkscape (http://www.inkscape.org/) -->

<svg
   width="64"
   height="64"
   viewBox="0 0 64 64"
   version="1.1"
   id="svg1"
   inkscape:version="1.4.2 (ebf0e940d0, 2025-05-08)"
   sodipodi:docname="telegram.svg"
   xmlns:inkscape="http://www.inkscape.org/namespaces/inkscape"
   xmlns:sodipodi="http://sodipodi.sourceforge.net/DTD/sodipodi-0.dtd"
   xmlns="http://www.w3.org/2000/svg"
   xmlns:svg="http://www.w3.org/2000/svg">
  <sodipodi:namedview
     id="namedview1"
     pagecolor="#505050"
     bordercolor="#ffffff"
     borderopacity="1"
     inkscape:showpageshadow="0"
     inkscape:pageopacity="0"
     inkscape:pagecheckerboard="1"
     inkscape:deskcolor="#505050"
     inkscape:document-units="px"
     inkscape:zoom="3.3945313"
     inkscape:cx="57.150747"
     inkscape:cy="9.4269274"
     inkscape:window-width="1918"
     inkscape:window-height="1053"
     inkscape:window-x="0"
     inkscape:window-y="0"
     inkscape:window-maximized="1"
     inkscape:current-layer="layer1"
     showgrid="true">
    <inkscape:grid
       id="grid9"
       units="px"
       originx="0"
       originy="0"
       spacingx="1"
       spacingy="1"
       empcolor="#0099e5"
       empopacity="0.30196078"
       color="#0099e5"
       opacity="0.14901961"
       empspacing="8"
       enabled="true"
       visible="true"
       dotted="true" />
  </sodipodi:namedview>
  <defs
     id="defs1">
    <inkscape:path-effect
       effect="bspline"
       id="path-effect8"
       is_visible="true"
       lpeversion="1.3"
       weight="33.333333"
       steps="2"
       helper_size="0"
       apply_no_weight="true"
       apply_with_weight="true"
       only_selected="false"
       uniform="false" />
    <inkscape:path-effect
       effect="bspline"
       id="path-effect7"
       is_visible="true"
       lpeversion="1.3"
       weight="33.333333"
       steps="2"
       helper_size="0"
       apply_no_weight="true"
       apply_with_weight="true"
       only_selected="false"
       uniform="false" />
  </defs>
  <g
     inkscape:label="Layer 1"
     inkscape:groupmode="layer"
     id="layer1"
     style="opacity:1">
    <path
       fill-rule="evenodd"
       clip-rule="evenodd"
       d="m 56.096523,15.280532 c 0.692026,-3.373646 -2.621606,-6.17722 -5.834012,-4.936033 L 10.884695,25.558655 c -3.5874431,1.386048 -3.7472934,6.402587 -0.255391,8.014129 l 8.575385,3.957981 4.079428,14.277858 c 0.211897,0.741662 0.800414,1.315912 1.547055,1.509451 0.746647,0.193301 1.539941,-0.02271 2.085334,-0.568166 l 6.283925,-6.28398 8.802604,6.602019 c 2.555208,1.916288 6.235425,0.520488 6.877165,-2.608335 z M 12.45378,29.619806 51.831598,14.405666 44.615277,49.584953 34.302361,41.850095 c -0.866611,-0.650007 -2.079345,-0.563799 -2.845385,0.202243 l -2.691481,2.691477 0.808707,-4.447562 15.845645,-15.845581 c 0.771266,-0.771156 0.852682,-1.993952 0.190694,-2.860622 -0.661984,-0.866703 -1.862962,-1.109795 -2.809902,-0.568707 l -21.88332,12.504636 z m 11.131746,7.395902 1.320011,4.620185 0.506795,-2.787469 c 0.07922,-0.435599 0.289394,-0.836797 0.602493,-1.149833 l 4.832411,-4.832212 z"
       fill="#0f0f0f"
       id="path1-5"
       style="fill:#cccccc;fill-opacity:1;stroke-width:2.17683;stroke-dasharray:none" />
  </g>
</svg>
